<svg version="1.1" id="Layer_1" xmlns="http://www.w3.org/2000/svg" xmlns:xlink="http://www.w3.org/1999/xlink" x="0px" y="0px"
	 width="100%" viewBox="0 0 512 512" enable-background="new 0 0 512 512" xml:space="preserve">
<path fill="#000000" opacity="1.000000" stroke="none" 
	d="
M289.000000,513.000000 
	C267.979095,513.000000 246.958206,513.000000 225.238449,512.726562 
	C216.308182,510.782715 208.081284,509.089783 199.844498,507.446320 
	C178.365448,503.160736 158.147644,495.263733 138.782974,485.292053 
	C124.619492,477.998596 111.209114,469.398071 98.687416,459.425598 
	C84.205803,447.892212 70.965904,435.119263 59.121071,420.928162 
	C43.509468,402.224060 30.884045,381.642334 21.212273,359.268433 
	C13.622540,341.710999 7.946808,323.588287 4.466814,304.740753 
	C3.496020,299.482971 4.062942,293.813873 1.000000,289.000000 
	C1.000000,267.979095 1.000000,246.958206 1.282515,225.242371 
	C3.476162,218.375290 3.770247,211.903549 5.067734,205.619614 
	C10.479260,179.410767 19.716408,154.628738 32.750244,131.245895 
	C42.332634,114.055000 53.728394,98.134964 67.087288,83.743797 
	C83.763649,65.778793 102.341797,50.012154 123.453186,37.341347 
	C142.634521,25.828945 162.837112,16.770140 184.323181,10.441523 
	C200.596634,5.648255 217.195633,2.853653 234.000000,1.000000 
	C251.687561,1.000000 269.375122,1.000000 287.808624,1.203052 
	C294.712616,3.389744 301.208527,3.515049 307.480499,4.821673 
	C339.486328,11.489362 369.377655,23.420273 396.798492,41.302029 
	C419.498932,56.105537 439.322174,74.074020 456.486206,95.106331 
	C480.070465,124.005852 496.358185,156.513596 505.850983,192.488220 
	C509.529053,206.426910 511.714569,220.644699 513.000000,235.000000 
	C513.000000,249.687561 513.000000,264.375122 512.961853,279.930237 
	C511.743378,288.976990 510.768921,297.192261 509.344269,305.328705 
	C505.017578,330.038818 496.657562,353.431305 485.058197,375.593170 
	C475.495300,393.864166 463.975159,410.843811 450.149658,426.288940 
	C437.695862,440.201630 424.238678,452.936096 409.256989,464.038086 
	C394.678101,474.841675 379.070801,483.886200 362.491852,491.337494 
	C343.794159,499.741028 324.482666,505.931488 304.296448,509.600800 
	C299.188904,510.529236 293.678345,510.035400 289.000000,513.000000 
M482.058319,191.219116 
	C478.515930,179.789047 474.577576,168.494980 469.408752,157.692749 
	C456.668549,131.067169 439.670776,107.587257 418.205811,87.200676 
	C402.902985,72.666687 386.065735,60.420738 367.598694,50.390610 
	C336.770325,33.646561 303.607239,24.727421 268.726501,22.531992 
	C249.448669,21.318624 230.216202,23.078318 211.272949,26.994690 
	C186.221497,32.173889 162.548141,40.994846 140.321640,53.816734 
	C108.840027,71.977654 82.999008,96.188309 62.636246,126.124298 
	C38.162525,162.103958 25.232533,202.191971 22.500383,245.498215 
	C21.294104,264.618500 23.056320,283.684845 26.918535,302.447723 
	C32.145508,327.840637 41.162281,351.829376 54.185860,374.342957 
	C67.217575,396.870636 83.789566,416.476440 103.155670,433.618469 
	C122.179321,450.457306 143.631790,463.704529 167.163513,473.484375 
	C193.953278,484.618286 221.854965,490.648468 250.818100,491.566406 
	C270.142822,492.178833 289.209137,489.978241 308.094543,485.739197 
	C337.334900,479.175934 364.297760,467.405518 388.985291,450.557861 
	C408.854156,436.998657 426.097931,420.524750 441.089050,401.684296 
	C456.855347,381.869598 469.045441,360.062164 477.559174,336.243530 
	C484.795959,315.997437 489.186279,295.186249 490.894623,273.657135 
	C491.980804,259.968384 491.662537,246.411926 490.382324,232.881393 
	C489.071716,219.029358 486.258087,205.365982 482.058319,191.219116 
z"/>
<path fill="#000000" opacity="1.000000" stroke="none" 
	d="
M289.639893,260.734833 
	C278.859955,267.932281 271.235260,277.041992 268.872070,289.721313 
	C267.585632,296.623657 268.585876,303.673065 268.373688,310.652557 
	C268.297821,313.149170 268.523010,315.668518 268.274170,318.143646 
	C267.601013,324.839203 263.449402,329.161987 257.751160,329.354919 
	C251.315125,329.572845 246.324722,326.065338 245.954620,319.126251 
	C245.042374,302.021240 244.812561,284.889862 252.499420,268.791260 
	C259.176361,254.807770 270.644012,245.781738 283.297791,237.757309 
	C296.989075,229.074966 304.963440,216.807510 306.707123,200.404495 
	C309.596375,173.225403 289.848999,149.742645 262.920898,145.507187 
	C244.777069,142.653381 223.135284,153.817291 213.945892,170.056107 
	C209.327881,178.216721 207.120712,186.920258 206.399368,196.111252 
	C205.883606,202.682755 202.000870,206.443298 195.524994,206.404877 
	C189.120377,206.366867 184.880936,202.455124 184.681000,195.942398 
	C184.183731,179.744751 189.005188,165.152130 198.641083,152.198395 
	C212.412643,133.685028 231.278488,123.892937 253.972260,123.030647 
	C271.709900,122.356682 288.228668,127.256897 302.460205,139.006607 
	C315.416229,149.703247 323.914856,162.884598 327.639465,179.096054 
	C334.207336,207.682953 322.847351,240.513687 295.771698,256.706635 
	C293.777588,257.899231 291.879120,259.251770 289.639893,260.734833 
z"/>
<path fill="#000000" opacity="1.000000" stroke="none" 
	d="
M238.543152,358.818909 
	C245.282181,348.501648 259.181946,345.125488 268.314789,351.279877 
	C279.005829,358.484283 281.582184,372.247589 274.180847,382.616882 
	C268.390747,390.728821 256.160187,393.237122 246.542206,388.285126 
	C237.626984,383.694977 233.319733,372.859955 236.638840,363.282074 
	C237.125351,361.878143 237.793259,360.537079 238.543152,358.818909 
z"/>
</svg>