<svg version="1.1" id="Layer_1" xmlns="http://www.w3.org/2000/svg" xmlns:xlink="http://www.w3.org/1999/xlink" x="0px" y="0px"
	 width="100%" viewBox="0 0 980 978" enable-background="new 0 0 980 978" xml:space="preserve">
<path fill="#FFFFFF" opacity="1.000000" stroke="none" 
	d="
M1.000000,154.000000 
	C1.000000,103.022598 1.000000,52.045197 1.000000,1.000000 
	C273.356659,1.000000 545.713318,1.000000 818.380859,1.346558 
	C811.265930,3.018861 805.027649,6.436699 799.669250,11.797362 
	C621.768616,189.774994 443.816193,367.700958 266.028931,545.791809 
	C261.829346,549.998535 258.268707,555.608704 256.368011,561.226746 
	C236.571762,619.739929 217.051666,678.347961 197.869095,737.065002 
	C195.992920,742.807861 195.575195,749.708069 196.731110,755.631836 
	C200.068222,772.734253 218.585175,784.817810 239.553940,777.673828 
	C297.089600,758.071533 354.899078,739.273376 412.449646,719.713989 
	C418.970093,717.497803 425.519562,713.448181 430.393555,708.583496 
	C607.795715,531.522034 785.003601,354.265930 962.227722,177.026077 
	C977.923279,161.329025 977.881958,143.212250 962.175049,127.486694 
	C926.372864,91.641914 890.482910,55.884308 854.802429,19.918898 
	C846.229614,11.277677 837.939758,2.583303 825.000000,1.000000 
	C876.966614,1.000000 928.933167,1.000000 981.000000,1.000000 
	C981.000000,172.023300 981.000000,343.046631 980.671204,514.352051 
	C976.956421,496.242401 959.001526,484.959595 940.983887,489.901276 
	C926.510376,493.870911 917.882690,506.038940 917.880676,522.641846 
	C917.867676,627.637634 917.775269,732.633484 917.918884,837.629089 
	C917.980042,882.356689 882.426453,915.601624 840.262024,915.527222 
	C607.438782,915.116638 374.614471,915.335632 141.790512,915.295471 
	C137.140030,915.294678 132.408249,915.225647 127.852013,914.415100 
	C89.812012,907.646973 64.151863,876.776245 64.145340,837.679260 
	C64.108246,615.521545 64.118332,393.363800 64.181961,171.206070 
	C64.183434,166.068192 64.522987,160.835495 65.517990,155.807953 
	C72.994400,118.031197 103.115013,93.358109 141.683350,93.346405 
	C252.845535,93.312660 364.007721,93.335258 475.169922,93.329071 
	C477.502014,93.328941 479.839386,93.334076 482.165405,93.191803 
	C502.725006,91.934364 516.466980,71.703522 510.107330,52.091980 
	C505.640472,38.317375 493.710968,30.134171 477.893677,30.132101 
	C365.564850,30.117409 253.236038,30.116589 140.907242,30.151703 
	C136.583832,30.153055 132.250168,30.441818 127.938820,30.804806 
	C68.166779,35.837215 18.295670,79.022713 4.845287,137.352325 
	C3.565567,142.902023 2.281858,148.450790 1.000000,154.000000 
z"/>
<path fill="#010101" opacity="1.000000" stroke="none" 
	d="
M1.000000,154.468658 
	C2.281858,148.450790 3.565567,142.902023 4.845287,137.352325 
	C18.295670,79.022713 68.166779,35.837215 127.938820,30.804806 
	C132.250168,30.441818 136.583832,30.153055 140.907242,30.151703 
	C253.236038,30.116589 365.564850,30.117409 477.893677,30.132101 
	C493.710968,30.134171 505.640472,38.317375 510.107330,52.091980 
	C516.466980,71.703522 502.725006,91.934364 482.165405,93.191803 
	C479.839386,93.334076 477.502014,93.328941 475.169922,93.329071 
	C364.007721,93.335258 252.845535,93.312660 141.683350,93.346405 
	C103.115013,93.358109 72.994400,118.031197 65.517990,155.807953 
	C64.522987,160.835495 64.183434,166.068192 64.181961,171.206070 
	C64.118332,393.363800 64.108246,615.521545 64.145340,837.679260 
	C64.151863,876.776245 89.812012,907.646973 127.852013,914.415100 
	C132.408249,915.225647 137.140030,915.294678 141.790512,915.295471 
	C374.614471,915.335632 607.438782,915.116638 840.262024,915.527222 
	C882.426453,915.601624 917.980042,882.356689 917.918884,837.629089 
	C917.775269,732.633484 917.867676,627.637634 917.880676,522.641846 
	C917.882690,506.038940 926.510376,493.870911 940.983887,489.901276 
	C959.001526,484.959595 976.956421,496.242401 980.671204,514.817017 
	C981.000000,627.687561 981.000000,740.375122 980.634216,853.697998 
	C971.361511,918.400818 928.730103,964.148010 866.341858,976.537842 
	C861.585876,977.482422 856.781738,978.184937 852.000000,979.000000 
	C851.250000,979.000000 850.500000,979.000000 849.195862,978.609619 
	C845.657593,978.147522 842.673523,978.013306 839.689392,978.012939 
	C605.110535,977.979980 370.531616,977.955750 135.952713,977.978149 
	C134.635101,977.978271 133.317566,978.644714 132.000000,979.000000 
	C130.933334,979.000000 129.866653,979.000000 128.248810,978.617920 
	C63.064922,971.930969 16.728127,925.054443 4.376429,869.774597 
	C3.203871,864.526917 2.123284,859.258667 1.000001,854.000000 
	C1.000000,620.979126 1.000000,387.958221 1.000000,154.468658 
z"/>
<path fill="#010101" opacity="1.000000" stroke="none" 
	d="
M824.571533,1.000000 
	C837.939758,2.583303 846.229614,11.277677 854.802429,19.918898 
	C890.482910,55.884308 926.372864,91.641914 962.175049,127.486694 
	C977.881958,143.212250 977.923279,161.329025 962.227722,177.026077 
	C785.003601,354.265930 607.795715,531.522034 430.393555,708.583496 
	C425.519562,713.448181 418.970093,717.497803 412.449646,719.713989 
	C354.899078,739.273376 297.089600,758.071533 239.553940,777.673828 
	C218.585175,784.817810 200.068222,772.734253 196.731110,755.631836 
	C195.575195,749.708069 195.992920,742.807861 197.869095,737.065002 
	C217.051666,678.347961 236.571762,619.739929 256.368011,561.226746 
	C258.268707,555.608704 261.829346,549.998535 266.028931,545.791809 
	C443.816193,367.700958 621.768616,189.774994 799.669250,11.797362 
	C805.027649,6.436699 811.265930,3.018861 818.845886,1.346558 
	C820.714355,1.000000 822.428711,1.000000 824.571533,1.000000 
M513.787659,536.288025 
	C602.011230,448.112427 690.234802,359.936829 777.754089,272.465149 
	C752.627930,247.337570 727.948547,222.656769 703.154663,197.861496 
	C699.593323,201.430939 695.601318,205.439209 691.601624,209.439896 
	C566.972717,334.101532 442.337860,458.757172 317.762451,583.472290 
	C315.846313,585.390503 314.080292,587.844421 313.225891,590.379333 
	C301.612396,624.834656 290.169800,659.347656 278.701111,693.851746 
	C278.276093,695.130371 278.014832,696.463501 277.602997,698.058838 
	C278.712646,697.854004 279.214874,697.821289 279.676666,697.667358 
	C314.812408,685.956238 349.958374,674.275330 385.049896,662.433105 
	C387.599609,661.572632 390.117767,659.901733 392.035065,657.990295 
	C432.505859,617.642944 472.888123,577.206726 513.787659,536.288025 
M856.472107,111.028091 
	C845.449280,100.003235 834.426453,88.978378 823.817322,78.367310 
	C798.801758,103.389610 774.106812,128.091187 750.080200,152.124298 
	C774.471252,176.522675 799.163025,201.221863 823.603088,225.669266 
	C847.850464,201.434555 872.457642,176.840195 897.397217,151.913696 
	C884.032166,138.561615 870.502197,125.044762 856.472107,111.028091 
z"/>
<path fill="#FEFEFE" opacity="1.000000" stroke="none" 
	d="
M852.468628,979.000000 
	C856.781738,978.184937 861.585876,977.482422 866.341858,976.537842 
	C928.730103,964.148010 971.361511,918.400818 980.634216,854.166626 
	C981.000000,895.594788 981.000000,937.189575 981.000000,979.000000 
	C938.312683,979.000000 895.625000,979.000000 852.468628,979.000000 
z"/>
<path fill="#FEFEFE" opacity="1.000000" stroke="none" 
	d="
M1.000001,854.468628 
	C2.123284,859.258667 3.203871,864.526917 4.376429,869.774597 
	C16.728127,925.054443 63.064922,971.930969 127.848808,978.617920 
	C85.740273,979.000000 43.480549,979.000000 1.000000,979.000000 
	C1.000000,937.646057 1.000000,896.291687 1.000001,854.468628 
z"/>
<path fill="#666666" opacity="1.000000" stroke="none" 
	d="
M132.464996,979.000000 
	C133.317566,978.644714 134.635101,977.978271 135.952713,977.978149 
	C370.531616,977.955750 605.110535,977.979980 839.689392,978.012939 
	C842.673523,978.013306 845.657593,978.147522 848.820862,978.609619 
	C610.309998,979.000000 371.620026,979.000000 132.464996,979.000000 
z"/>
<path fill="#FEFEFE" opacity="1.000000" stroke="none" 
	d="
M513.537720,536.537964 
	C472.888123,577.206726 432.505859,617.642944 392.035065,657.990295 
	C390.117767,659.901733 387.599609,661.572632 385.049896,662.433105 
	C349.958374,674.275330 314.812408,685.956238 279.676666,697.667358 
	C279.214874,697.821289 278.712646,697.854004 277.602997,698.058838 
	C278.014832,696.463501 278.276093,695.130371 278.701111,693.851746 
	C290.169800,659.347656 301.612396,624.834656 313.225891,590.379333 
	C314.080292,587.844421 315.846313,585.390503 317.762451,583.472290 
	C442.337860,458.757172 566.972717,334.101532 691.601624,209.439896 
	C695.601318,205.439209 699.593323,201.430939 703.154663,197.861496 
	C727.948547,222.656769 752.627930,247.337570 777.754089,272.465149 
	C690.234802,359.936829 602.011230,448.112427 513.537720,536.537964 
z"/>
<path fill="#FEFEFE" opacity="1.000000" stroke="none" 
	d="
M856.722168,111.278000 
	C870.502197,125.044762 884.032166,138.561615 897.397217,151.913696 
	C872.457642,176.840195 847.850464,201.434555 823.603088,225.669266 
	C799.163025,201.221863 774.471252,176.522675 750.080200,152.124298 
	C774.106812,128.091187 798.801758,103.389610 823.817322,78.367310 
	C834.426453,88.978378 845.449280,100.003235 856.722168,111.278000 
z"/>
</svg>