<?xml version="1.0" encoding="UTF-8"?>
<svg version="1.1" xmlns="http://www.w3.org/2000/svg" width="1200" height="1200">
<path d="M0 0 C44.46662607 -0.7436927 88.29002962 3.54405555 131.71826172 13.06640625 C132.74759827 13.29200226 132.74759827 13.29200226 133.79772949 13.52215576 C156.28118124 18.48980604 178.02193858 25.39577534 199.71826172 33.06640625 C200.77110352 33.43765625 201.82394531 33.80890625 202.90869141 34.19140625 C264.8105543 56.28534407 324.08278877 91.61878231 372.58154297 136.109375 C374.49456476 137.8615211 376.43841455 139.56341391 378.40576172 141.25390625 C390.41975926 151.7326465 402.38306699 162.68962185 412.74951172 174.81640625 C414.79595665 177.15520046 416.90205888 179.42693454 419.0234375 181.69750977 C424.86237809 187.95144193 430.38004118 194.37571709 435.71826172 201.06640625 C436.63917357 202.19609833 437.56110283 203.32496157 438.48388672 204.453125 C459.55580128 230.323802 477.51020137 258.48964124 493.4609375 287.76025391 C494.28388428 289.26968212 495.11025229 290.77725132 495.94042969 292.28271484 C508.22204777 314.60347903 518.04292604 338.13594337 526.71826172 362.06640625 C527.09547363 363.10603516 527.47268555 364.14566406 527.86132812 365.21679688 C546.147365 416.29404941 556.45810268 470.66792593 558.28076172 524.87890625 C558.32249512 526.11374756 558.36422852 527.34858887 558.40722656 528.62084961 C558.69163846 537.44400309 558.90059087 546.23895966 558.71826172 555.06640625 C558.70569336 555.93765137 558.693125 556.80889648 558.68017578 557.70654297 C557.77571211 612.86959779 548.24629191 667.7820026 530.71826172 720.06640625 C530.14253418 721.79334717 530.14253418 721.79334717 529.55517578 723.55517578 C513.4322651 771.44733554 490.47768026 816.5442009 461.71826172 858.06640625 C461.25194336 858.73978027 460.785625 859.4131543 460.30517578 860.10693359 C443.19465758 884.67894522 423.92091548 908.16810122 402.56982422 929.1796875 C400.60075136 931.11707983 400.60075136 931.11707983 398.65576172 933.69140625 C396.35688865 936.50937969 393.75286506 938.69115916 390.99169922 941.046875 C388.46233745 943.29374791 386.09392465 945.65784952 383.71826172 948.06640625 C379.54011661 952.28259214 375.24458788 956.2309404 370.71826172 960.06640625 C369.79787109 960.86433594 368.87748047 961.66226563 367.92919922 962.484375 C359.14647273 970.06266911 349.9933999 977.1045685 340.71826172 984.06640625 C339.58445068 984.92371338 339.58445068 984.92371338 338.42773438 985.79833984 C295.43297033 1018.27339786 247.41602834 1043.89187591 196.71826172 1062.06640625 C195.57131836 1062.47842285 194.424375 1062.89043945 193.24267578 1063.31494141 C108.13353909 1093.53855434 14.95446334 1101.48378323 -217.2922821 1043.94065857 C-240.37790025 1032.88891307 -262.70927466 1020.86280504 -284.28173828 1007.06640625 C-285.93882812 1006.00679687 -285.93882812 1006.00679687 -287.62939453 1004.92578125 C-296.73644281 998.9629821 -305.48630816 992.4751051 -314.28173828 986.06640625 C-315.34134766 985.29683594 -316.40095703 984.52726562 -317.49267578 983.734375 C-319.2557784 982.45372596 -321.01758786 981.17129388 -322.77783203 979.88671875 C-324.51464047 978.62407798 -326.25725905 977.36940576 -328.00439453 976.12109375 C-334.65222749 971.35260598 -341.0197896 966.33043482 -347.28173828 961.06640625 C-347.8220166 960.61249512 -348.36229492 960.15858398 -348.91894531 959.69091797 C-350.66896224 958.21666734 -352.41374768 956.73645556 -354.15673828 955.25390625 C-354.93078003 954.59890137 -354.93078003 954.59890137 -355.72045898 953.93066406 C-366.39912668 944.78627843 -376.49506443 935.0197725 -386.41357422 925.06494141 C-388.17317308 923.29992081 -389.93814225 921.54039492 -391.70361328 919.78125 C-397.4434234 914.04511248 -403.0451654 908.27212534 -408.28173828 902.06640625 C-409.23043637 900.9827765 -410.18091108 899.90069916 -411.13330078 898.8203125 C-418.35109455 890.54456108 -425.09133811 881.96775526 -431.68359375 873.18798828 C-433.22790517 871.13787122 -434.78581332 869.09890407 -436.34814453 867.0625 C-469.65950214 823.47360087 -495.31283223 773.80729615 -513.28173828 722.06640625 C-513.85553223 720.41898438 -513.85553223 720.41898438 -514.44091797 718.73828125 C-527.70020614 680.21513199 -535.77280052 640.51693677 -540.28173828 600.06640625 C-540.40178223 599.03370605 -540.52182617 598.00100586 -540.64550781 596.93701172 C-550.849638 505.46481639 -533.63623742 408.39566956 -495.28173828 325.06640625 C-494.79350586 324.00180176 -494.30527344 322.93719727 -493.80224609 321.84033203 C-473.70845328 278.33468768 -448.25009302 237.68551624 -417.28173828 201.06640625 C-416.85006348 200.55126465 -416.41838867 200.03612305 -415.97363281 199.50537109 C-404.26978678 185.55094168 -391.76052288 172.45782646 -378.90673828 159.56640625 C-378.3905896 159.04757874 -377.87444092 158.52875122 -377.34265137 157.99420166 C-371.5032337 152.13179051 -365.59804721 146.41962071 -359.28173828 141.06640625 C-358.16356518 140.09357961 -357.04634739 139.11965365 -355.93017578 138.14453125 C-348.47671822 131.68831974 -340.88946369 125.4490294 -333.06933594 119.44189453 C-331.89137571 118.53549902 -330.71648173 117.6251025 -329.54492188 116.71044922 C-264.40366879 65.87956898 -185.67433273 30.01692946 0 0 Z M-63.28173828 35.06640625 C-64.33055176 35.20804199 -65.37936523 35.34967773 -66.45996094 35.49560547 C-119.71558652 42.81249345 -173.43557903 57.89833847 -221.15527344 82.96044922 C-223.57504987 84.21895522 -226.01168699 85.44128531 -228.44970703 86.6640625 C-261.43042012 103.3466344 -292.01090087 124.29781124 -320.28173828 148.06640625 C-321.06315186 148.72044434 -321.06315186 148.72044434 -321.86035156 149.38769531 C-335.4440883 160.78203933 -348.22881231 172.92871401 -360.78173828 185.44140625 C-361.71373047 186.36872559 -362.64572266 187.29604492 -363.60595703 188.25146484 C-368.70597017 193.36343689 -373.60005982 198.57026436 -378.28173828 204.06640625 C-379.23090872 205.14962228 -380.18137617 206.23170353 -381.13330078 207.3125 C-433.88421089 267.78741531 -472.1100235 341.58886915 -507.28173828 555.06640625 C-507.26288574 556.41702148 -507.26288574 556.41702148 -507.24365234 557.79492188 C-507.00418378 572.68106963 -505.89738853 587.39369095 -504.34423828 602.19140625 C-504.21619812 603.42762222 -504.21619812 603.42762222 -504.08557129 604.68881226 C-503.22431772 612.91415351 -502.3489956 621.0384025 -500.28173828 629.06640625 C-499.95173828 628.40640625 -499.62173828 627.74640625 -499.28173828 627.06640625 C-497.96173828 627.06640625 -496.64173828 627.06640625 -495.28173828 627.06640625 C-495.61173828 628.05640625 -495.94173828 629.04640625 -496.28173828 630.06640625 C-494.90681024 633.23329005 -494.90681024 633.23329005 -493.28173828 636.06640625 C-494.27173828 635.73640625 -495.26173828 635.40640625 -496.28173828 635.06640625 C-496.94173828 637.37640625 -497.60173828 639.68640625 -498.28173828 642.06640625 C-497.62173828 642.39640625 -496.96173828 642.72640625 -496.28173828 643.06640625 C-496.48798828 643.93265625 -496.69423828 644.79890625 -496.90673828 645.69140625 C-497.32221451 649.43069227 -496.67840105 651.61582766 -495.28173828 655.06640625 C-494.29173828 655.06640625 -493.30173828 655.06640625 -492.28173828 655.06640625 C-492.28173828 656.05640625 -492.28173828 657.04640625 -492.28173828 658.06640625 C-493.27173828 657.73640625 -494.26173828 657.40640625 -495.28173828 657.06640625 C-494.69627708 660.17440463 -494.08517674 663.27681617 -493.46923828 666.37890625 C-493.30359375 667.25998047 -493.13794922 668.14105469 -492.96728516 669.04882812 C-492.71108398 670.32016602 -492.71108398 670.32016602 -492.44970703 671.6171875 C-492.29783936 672.39747314 -492.14597168 673.17775879 -491.98950195 673.98168945 C-491.16547308 676.40886521 -490.31937306 677.52423748 -488.28173828 679.06640625 C-487.29173828 679.06640625 -486.30173828 679.06640625 -485.28173828 679.06640625 C-485.28173828 680.05640625 -485.28173828 681.04640625 -485.28173828 682.06640625 C-485.94173828 682.06640625 -486.60173828 682.06640625 -487.28173828 682.06640625 C-488.46349777 686.27310285 -488.02582876 688.91463146 -486.72705078 693.0546875 C-486.36426025 694.22370605 -486.00146973 695.39272461 -485.62768555 696.59716797 C-485.22477295 697.8451416 -484.82186035 699.09311523 -484.40673828 700.37890625 C-483.99118061 701.68632518 -483.57573604 702.99378006 -483.16040039 704.30126953 C-462.55900303 768.62115359 -429.73478189 828.36842616 -386.28173828 880.06640625 C-385.63567627 880.83984375 -385.63567627 880.83984375 -384.9765625 881.62890625 C-374.18856223 894.51826762 -362.69774554 906.7168838 -350.84423828 918.62890625 C-350.20647461 919.27134277 -349.56871094 919.9137793 -348.91162109 920.57568359 C-345.10657539 924.36785434 -341.18010037 927.9634577 -337.11450195 931.47436523 C-334.74363714 933.53383099 -332.45341359 935.67481191 -330.15673828 937.81640625 C-324.40498606 943.05531362 -318.36175041 947.82952982 -312.19921875 952.57275391 C-310.26057764 954.08288967 -308.34963851 955.62294231 -306.44189453 957.171875 C-288.47277463 971.64071294 -268.83189831 985.3260738 -248.34375 995.98974609 C-245.92770042 997.25126381 -243.52939945 998.54416374 -241.12939453 999.8359375 C-184.05986918 1030.32785094 -122.26746186 1049.52449996 -58.15673828 1057.81640625 C-57.34328949 1057.9231366 -56.5298407 1058.02986694 -55.69174194 1058.13983154 C-40.57964289 1060.10776444 -25.53778336 1061.33096195 -10.28173828 1061.06640625 C-10.28173828 1060.40640625 -10.28173828 1059.74640625 -10.28173828 1059.06640625 C-9.29173828 1059.06640625 -8.30173828 1059.06640625 -7.28173828 1059.06640625 C-7.28173828 1059.72640625 -7.28173828 1060.38640625 -7.28173828 1061.06640625 C22.33373113 1061.5379324 51.36551717 1061.25204923 80.71826172 1057.06640625 C81.39123291 1056.97210327 82.0642041 1056.87780029 82.75756836 1056.78063965 C160.90451077 1045.78631131 237.66174634 1016.9179783 302.71826172 972.06640625 C303.84553402 971.29899146 304.97313628 970.53206111 306.10107422 969.765625 C313.4657204 964.73985383 320.64518451 959.49416588 327.71826172 954.06640625 C328.26595215 953.64633301 328.81364258 953.22625977 329.37792969 952.79345703 C341.19924554 943.69728332 352.53063968 934.07345034 363.53466797 924.00390625 C365.13341319 922.58534162 366.79811493 921.24018944 368.49560547 919.94140625 C369.22908203 919.32265625 369.96255859 918.70390625 370.71826172 918.06640625 C370.71826172 917.40640625 370.71826172 916.74640625 370.71826172 916.06640625 C371.30760498 915.80230957 371.89694824 915.53821289 372.50415039 915.26611328 C374.80273321 914.02063573 376.30765688 912.72088411 378.14404297 910.87109375 C378.77205811 910.24187012 379.40007324 909.61264648 380.04711914 908.96435547 C381.02902222 907.96299561 381.02902222 907.96299561 382.03076172 906.94140625 C382.70792236 906.2570752 383.38508301 905.57274414 384.08276367 904.86767578 C387.8295317 901.05972308 391.48950034 897.2154351 394.93310547 893.12890625 C396.86682925 890.89475711 398.88451085 888.74859036 400.91088867 886.59863281 C407.13337723 879.97717924 412.78722581 873.05862678 418.32080078 865.85791016 C419.72727367 864.05485319 421.16479667 862.28225191 422.61669922 860.515625 C430.07362669 851.42549769 436.78093703 841.94537153 443.30957031 832.16992188 C444.49254069 830.40346213 445.69144624 828.64768842 446.89404297 826.89453125 C455.10056943 814.86508874 462.5775977 802.26798466 469.46826172 789.44140625 C469.80341797 788.82031982 470.13857422 788.1992334 470.48388672 787.55932617 C472.19110485 784.48045607 472.19110485 784.48045607 472.71826172 781.06640625 C473.31227783 780.86313721 473.90629395 780.65986816 474.51831055 780.45043945 C477.63125196 778.49202586 478.39606681 776.24737581 479.91748047 772.921875 C480.19799759 772.31507401 480.47851471 771.70827301 480.76753235 771.08308411 C481.35742519 769.8005522 481.94121828 768.51519946 482.51928711 767.22729492 C483.40061691 765.26535916 484.30077321 763.31299101 485.20458984 761.36132812 C487.52289345 756.29541445 489.6812477 751.56500501 490.71826172 746.06640625 C491.39504263 744.20992649 492.11666441 742.36947426 492.87060547 740.54296875 C493.31235107 739.4559668 493.75409668 738.36896484 494.20922852 737.24902344 C494.68658447 736.07500977 495.16394043 734.90099609 495.65576172 733.69140625 C529.1839192 649.88275161 539.38556271 556.24708888 490.98779297 346.34765625 C480.47516112 322.49529705 468.36770616 299.26680135 454.71826172 277.06640625 C454.2074707 276.22142578 453.69667969 275.37644531 453.17041016 274.50585938 C446.52188494 263.51169773 439.26711717 253.23880723 431.32958984 243.14257812 C429.1710282 240.36130415 427.08406136 237.52989039 424.99462891 234.6965332 C420.52523617 228.64226464 415.93898265 222.88198198 410.80419922 217.3671875 C408.61437224 214.95181654 406.6023059 212.44601825 404.59326172 209.87890625 C401.67095719 206.16332146 398.59222391 202.81270968 395.18701172 199.5390625 C393.71826172 198.06640625 393.71826172 198.06640625 391.90576172 195.62890625 C391.51388672 195.11328125 391.12201172 194.59765625 390.71826172 194.06640625 C390.05826172 194.06640625 389.39826172 194.06640625 388.71826172 194.06640625 C388.44965332 193.47255127 388.18104492 192.87869629 387.90429688 192.2668457 C386.7129394 190.0565318 385.51614274 188.61993442 383.74169922 186.859375 C382.8656604 185.98514893 382.8656604 185.98514893 381.97192383 185.09326172 C381.35196533 184.48627441 380.73200684 183.87928711 380.09326172 183.25390625 C379.13722046 182.30862061 379.13722046 182.30862061 378.16186523 181.34423828 C374.48716665 177.7327432 370.76191271 174.22353401 366.82763672 170.89453125 C364.53180675 168.90481194 362.31505881 166.84393031 360.09570312 164.76977539 C353.84111766 158.9281263 347.43019221 153.38305771 340.71826172 148.06640625 C339.90421875 147.41889404 339.90421875 147.41889404 339.07373047 146.75830078 C308.30111431 122.29823878 275.77647302 101.83193529 240.71826172 84.06640625 C239.4872876 83.43484619 239.4872876 83.43484619 238.23144531 82.79052734 C169.848755 47.90369356 92.04173757 32.0463133 15.71826172 30.06640625 C14.94836914 30.04304199 14.17847656 30.01967773 13.38525391 29.99560547 C-12.09557933 29.28415095 -38.06900614 31.60318441 -63.28173828 35.06640625 Z " fill="#000000" transform="translate(586.28173828125,52.93359375)"/>
<path d="M0 0 C40.59 0 81.18 0 123 0 C123 147.84 123 295.68 123 448 C82.41 448 41.82 448 0 448 C0 300.16 0 152.32 0 0 Z " fill="#000000" transform="translate(531,456)"/>
<path d="M0 0 C2.5432193 1.97805946 4.98934262 4.02732045 7.4140625 6.1484375 C8.35572266 6.94701172 8.35572266 6.94701172 9.31640625 7.76171875 C20.30466167 17.80314037 26.4497938 32.44333987 27.4140625 47.1484375 C27.465625 47.85613281 27.5171875 48.56382812 27.5703125 49.29296875 C28.24746386 66.30639659 22.62870555 82.85327352 11.2890625 95.5859375 C3.2182312 104.10855292 -7.36043102 110.73361956 -18.5859375 114.1484375 C-19.30136719 114.37144531 -20.01679687 114.59445312 -20.75390625 114.82421875 C-40.19896101 119.74405188 -59.72235269 115.03165239 -76.7734375 105.3359375 C-77.7015625 104.6140625 -78.6296875 103.8921875 -79.5859375 103.1484375 C-80.33101562 102.56964844 -81.07609375 101.99085938 -81.84375 101.39453125 C-95.12824449 90.36474454 -102.60475438 75.24604785 -104.5859375 58.1484375 C-105.88007584 41.82238459 -101.11724825 26.0968919 -91.2734375 13.09375 C-89.13373245 10.65766689 -86.93877034 8.37766936 -84.5859375 6.1484375 C-83.81830078 5.40400391 -83.81830078 5.40400391 -83.03515625 4.64453125 C-61.01970893 -15.13836366 -24.00221875 -17.18587868 0 0 Z " fill="#000000" transform="translate(630.5859375,291.8515625)"/>
<path d="M0 0 C1.32 0 2.64 0 4 0 C4.77321882 2.98241547 5.41196203 5.97580475 6 9 C5.01 9 4.02 9 3 9 C2.67 10.32 2.34 11.64 2 13 C1.01 12.67 0.02 12.34 -1 12 C-0.67 8.04 -0.34 4.08 0 0 Z " fill="#5E6369" transform="translate(87,680)"/>
<path d="M0 0 C0.99 0 1.98 0 3 0 C4.4606285 2.64738916 5 3.89448334 5 7 C3.35 6.67 1.7 6.34 0 6 C-0.38218767 4.34385343 -0.71395102 2.67542976 -1 1 C-0.67 0.67 -0.34 0.34 0 0 Z " fill="#B4B7BA" transform="translate(610,1093)"/>
<path d="M0 0 C2.475 0.495 2.475 0.495 5 1 C5 1.99 5 2.98 5 4 C4.34 4 3.68 4 3 4 C3 4.66 3 5.32 3 6 C2.01 5.67 1.02 5.34 0 5 C0 3.35 0 1.7 0 0 Z " fill="#C6CABD" transform="translate(96,731)"/>
<path d="M0 0 C1.32 0 2.64 0 4 0 C3.34 2.31 2.68 4.62 2 7 C1.34 7 0.68 7 0 7 C0 4.69 0 2.38 0 0 Z " fill="#888D7B" transform="translate(87,680)"/>
<path d="M0 0 C0.99 0 1.98 0 3 0 C3 1.32 3 2.64 3 4 C2.01 4 1.02 4 0 4 C0 2.68 0 1.36 0 0 Z " fill="#B9C0C3" transform="translate(279,1069)"/>
<path d="M0 0 C0.99 0 1.98 0 3 0 C3 1.32 3 2.64 3 4 C2.01 4 1.02 4 0 4 C0 2.68 0 1.36 0 0 Z " fill="#B6BBBE" transform="translate(10,552)"/>
<path d="M0 0 C0.99 0.33 1.98 0.66 3 1 C3 1.99 3 2.98 3 4 C2.01 4 1.02 4 0 4 C0 2.68 0 1.36 0 0 Z " fill="#96989D" transform="translate(35,884)"/>
<path d="M0 0 C0.66 0 1.32 0 2 0 C2 0.99 2 1.98 2 3 C1.01 3 0.02 3 -1 3 C-0.67 2.01 -0.34 1.02 0 0 Z " fill="#B2BBBE" transform="translate(83,1186)"/>
<path d="M0 0 C0.99 0 1.98 0 3 0 C3 0.99 3 1.98 3 3 C2.01 2.67 1.02 2.34 0 2 C0 1.34 0 0.68 0 0 Z " fill="#B6BCC5" transform="translate(142,1005)"/>
<path d="M0 0 C0.99 0 1.98 0 3 0 C2.67 0.99 2.34 1.98 2 3 C1.34 3 0.68 3 0 3 C0 2.01 0 1.02 0 0 Z " fill="#4B5959" transform="translate(94,697)"/>
<path d="M0 0 C0.99 0 1.98 0 3 0 C3 0.66 3 1.32 3 2 C2.01 2 1.02 2 0 2 C0 1.34 0 0.68 0 0 Z " fill="#A8AEB3" transform="translate(635,1189)"/>
<path d="M0 0 C0.66 0 1.32 0 2 0 C2 0.99 2 1.98 2 3 C1.34 3 0.68 3 0 3 C0 2.01 0 1.02 0 0 Z " fill="#ABB3B3" transform="translate(296,1160)"/>
<path d="M0 0 C0.66 0 1.32 0 2 0 C2 0.99 2 1.98 2 3 C1.34 3 0.68 3 0 3 C0 2.01 0 1.02 0 0 Z " fill="#B5BBBF" transform="translate(282,1131)"/>
<path d="M0 0 C0.66 0 1.32 0 2 0 C2 0.66 2 1.32 2 2 C1.34 2 0.68 2 0 2 C0 1.34 0 0.68 0 0 Z " fill="#424543" transform="translate(586,1107)"/>
<path d="M0 0 C0.66 0 1.32 0 2 0 C2 0.66 2 1.32 2 2 C1.34 2 0.68 2 0 2 C0 1.34 0 0.68 0 0 Z " fill="#B1B5BA" transform="translate(19,692)"/>
</svg>
